<?xml version="1.0"?><svg width="640" height="480" xmlns="http://www.w3.org/2000/svg">
 <title>placeholder</title>
 <metadata id="metadata7">image/svg+xmlMan silhouetteMan silhouette people person head shoulders face</metadata>
 <g>
  <title>Layer 1</title>
  <g id="layer1">
   <path d="m85.428886,434.157928c0,-7.144257 13.045479,-68.540619 15.256615,-71.803223c0.787796,-1.162231 2.744553,-8.691406 4.348373,-16.730927c3.741348,-18.754883 10.639145,-38.905365 14.699387,-42.941895c1.745407,-1.735596 17.40834,-5.859985 34.806351,-9.166199c53.447311,-10.156738 77.003082,-17.980347 88.633148,-29.436707c5.542938,-5.460327 13.926849,-11.151291 18.630646,-12.64679c7.472687,-2.375412 8.551575,-3.887024 8.551575,-11.980194c0,-5.093445 -1.70694,-11.4953 -3.794128,-14.225449c-2.086395,-2.730804 -4.711853,-10.061478 -5.834106,-16.290985c-1.122284,-6.229507 -4.383209,-13.35231 -7.246185,-15.828949c-2.86377,-2.475983 -5.206146,-5.636658 -5.206146,-7.022842c0,-1.386871 -2.794556,-5.967941 -6.20993,-10.180878c-5.297302,-6.533264 -6.261444,-11.050674 -6.556366,-30.729691c-0.569916,-38.020813 3.004272,-55.418335 14.679932,-71.45919c16.486115,-22.649261 48.323578,-38.336021 77.95105,-38.408447c11.577087,-0.02816 16.441223,1.195747 21.302429,5.360367c3.671234,3.144588 12.298553,6.261688 20.674347,7.468834c16.664825,2.402206 31.652863,12.052593 38.929932,25.066879c3.658051,6.542694 4.826599,14.834381 4.830322,34.280022c0.002167,14.380356 1.21637,26.333046 2.763702,27.204857c7.505798,4.230347 0.503784,33.455826 -11.270447,47.044846c-4.427246,5.109543 -8.077209,11.33905 -8.110291,13.843185c-0.033813,2.503479 -2.517365,9.489441 -5.520142,15.523804c-9.973145,20.041153 -6.540894,39.876434 7.66687,44.31601c2.647522,0.827545 9.161224,6.601715 14.473969,12.831238c5.313477,6.230133 12.765564,11.967407 16.561127,12.75c3.7948,0.782013 20.81485,6.407898 37.820923,12.502625c17.006775,6.094055 31.749878,11.0802 32.763306,11.0802c1.012695,0 7.222656,3.11438 13.798096,6.9216c11.752197,6.802887 17.740784,15.883911 17.740784,26.899689c0,2.961517 2.568848,9.871704 5.707703,15.355469c5.051636,8.82486 8.489807,25.74823 15.449158,76.03894l1.479614,10.697266l-234.885651,0l-234.885963,0l0,-6.333466l0,0z" id="path2396" fill="#7f7f7f"/>
  </g>
 </g>
</svg>